<svg
    width="180"
    height="37"
    viewBox="0 0 180 37"
    xmlns="http://www.w3.org/2000/svg"
  >
    <g clipPath="url(#clip0_5784_1733)">
      <path
        d="M18.3966 36.1245C28.5567 36.1245 36.7931 28.0656 36.7931 18.1245C36.7931 8.18339 28.5567 0.124512 18.3966 0.124512C8.23642 0.124512 0 8.18339 0 18.1245C0 28.0656 8.23642 36.1245 18.3966 36.1245Z"
        fill="#301748"
      />
      <path
        d="M19.093 30.1056C18.474 29.5378 17.8936 28.951 17.352 28.3075C16.0753 26.6986 13.2123 23.8595 12.4965 23.1403C11.6841 22.3264 10.8523 21.5125 10.0398 20.6797C9.92372 20.5662 9.73028 20.4147 9.84634 20.2255C9.96241 20.0362 10.1945 20.0551 10.388 20.074C10.4847 20.074 10.5621 20.093 10.6395 20.1308C11.2198 20.358 11.8001 20.5851 12.3805 20.8122C13.5411 21.2665 14.6825 21.7397 15.8431 22.175C16.5395 22.44 16.849 22.175 16.7136 21.4557C16.5976 20.8501 16.4428 20.2633 16.288 19.6766C16.1526 19.1845 16.4428 18.6734 16.9458 18.522C16.9844 18.5031 17.0425 18.5031 17.1005 18.4841C17.3326 18.4463 17.5841 18.4463 17.8162 18.4274C18.0484 18.4084 18.2999 18.3516 18.3966 18.0867C18.4933 17.8406 18.4159 17.5567 18.2031 17.4053C17.41 16.6671 16.6362 15.91 15.8431 15.1529C13.8893 13.2602 11.9355 11.3674 9.98175 9.47467C8.82109 8.35795 7.66042 7.24123 6.5191 6.12451C6.40303 6.01095 6.28696 5.91631 6.38369 5.74597C6.48041 5.57562 6.63516 5.59455 6.78992 5.6324C7.27353 5.72704 7.62173 6.06773 7.98928 6.31379C8.99519 6.99518 10.0591 7.60085 11.0844 8.24439C11.8001 8.67972 12.5352 9.11505 13.251 9.56931C13.9667 10.0236 14.6438 10.4778 15.3402 10.9132C16.3461 11.5378 17.3713 12.1434 18.3772 12.768C19.4605 13.4494 20.5438 14.1308 21.6271 14.8311C21.8205 14.9636 21.9946 15.0204 22.2074 14.8501C22.4202 14.6797 22.3815 14.4904 22.2848 14.2444C22.072 13.6766 21.6658 13.2223 21.511 12.6356C21.453 12.4463 21.4143 12.257 21.6078 12.1056C21.7625 11.9731 21.9946 11.9731 22.1687 12.0867C22.9038 12.4274 23.6196 12.8059 24.316 13.2223C25.1478 13.7333 26.0376 14.2065 26.9468 14.604C28.417 15.2854 29.8291 16.0993 31.2219 16.9132C31.9957 17.3863 32.6534 18.011 33.1757 18.7491C33.582 19.298 33.9108 19.8848 34.1816 20.5094C34.5492 21.4179 34.8007 22.3643 34.9167 23.3296C35.1489 25.052 34.5105 27.2665 33.6787 28.4589C32.9823 29.5378 32.0538 30.4652 30.9898 31.2034C30.2741 31.6766 29.4809 32.074 28.6685 32.3769C27.8173 32.6986 26.9275 32.7554 25.9796 32.7933H25.7475C23.7356 32.6608 21.8012 32.3769 19.093 30.1056ZM31.7636 24.3327C31.8216 21.2286 29.3068 18.6545 26.1344 18.5977H25.9603C22.8458 18.6166 20.2923 21.0961 20.2923 24.3706C20.2923 27.0583 22.9619 30.0488 25.9989 29.8595C29.1327 29.992 31.7442 27.2097 31.7636 24.3327Z"
        fill="url(#paint0_linear_5784_1733)"
      />
      <path
        d="M12.1868 17.0267C12.1868 17.4999 12.5737 17.8974 13.0573 17.9163C13.5409 17.9163 13.9278 17.5378 13.9084 17.0646V17.0078C13.8891 16.5346 13.4828 16.1561 12.9992 16.1371C12.535 16.175 12.1674 16.5725 12.1868 17.0267Z"
        fill="url(#paint1_linear_5784_1733)"
      />
      <path
        d="M15.8429 6.20022C16.3652 6.20022 16.6747 5.87846 16.6747 5.34849C16.6554 4.89423 16.2685 4.55353 15.8236 4.53461C15.4367 4.53461 14.895 5.00779 14.895 5.36741C14.9337 5.85953 15.3593 6.21915 15.8429 6.20022Z"
        fill="url(#paint2_linear_5784_1733)"
      />
      <path
        d="M6.38361 13.7901C6.40295 13.3737 6.0741 13.033 5.66786 13.0141H5.59049C5.14556 13.052 4.81671 13.3926 4.79736 13.828C4.83605 14.2444 5.16491 14.5662 5.59049 14.5851C6.01606 14.604 6.38361 14.2633 6.38361 13.8469V13.7901Z"
        fill="url(#paint3_linear_5784_1733)"
      />
      <path
        d="M25.9987 29.8595C29.1325 29.992 31.744 27.2286 31.7633 24.3327C31.8214 21.2286 29.3066 18.6545 26.1341 18.5977H25.96C22.8456 18.6166 20.2921 21.0961 20.2921 24.3706C20.2728 27.0583 22.9616 30.0488 25.9987 29.8595Z"
        fill="url(#paint4_linear_5784_1733)"
      />
      <path
        d="M46.3301 23.1214C47.9357 24.2192 49.8315 25.2412 52.0367 25.2412C54.3581 25.2412 55.983 24.1624 55.983 22.6671C55.983 21.1718 55.0545 20.5094 53.2167 19.8469L50.4892 18.9005C47.5875 17.8785 46.2334 16.3643 46.2334 14.093C46.2334 11.2728 48.5547 9.51253 52.2495 9.51253C54.1259 9.51253 55.9637 10.0236 57.5499 10.9699V13.4873C56.0023 12.3895 54.3387 11.6892 52.3462 11.6892C50.141 11.6892 48.7095 12.6734 48.7095 14.093C48.7095 15.5125 49.8315 16.1371 51.3984 16.7239L54.1259 17.7081C57.1823 18.8059 58.4784 20.2822 58.4784 22.686C58.4784 25.6387 56.0604 27.4368 52.0948 27.4368C50.0249 27.399 48.0324 26.7744 46.3301 25.6198V23.1214Z"
        fill="#301748"
      />
      <path
        d="M68.2279 27.0015C66.5256 27.5504 65.1715 27.5315 64.301 26.9447C63.4499 26.3012 63.063 25.2602 63.063 23.7081V16.7428H61.3413V14.6608H63.063V11.5567H65.3456V14.6419H67.4735V16.7428H65.3456V23.5567C65.3456 24.2759 65.481 24.768 65.7712 24.9952C66.3128 25.4684 67.2607 25.1844 68.2279 24.9384V27.0015Z"
        fill="#301748"
      />
      <path
        d="M70.8779 20.9447C70.8779 17.6324 73.1606 14.2633 77.1455 14.2633C80.821 14.2633 83.0456 17.0456 83.181 19.9037C83.181 20.1876 83.2003 20.3958 83.2003 21.2854H73.1606C73.296 23.8217 75.0563 25.3169 77.8226 25.3169C79.3895 25.3548 80.8983 24.8816 82.1751 23.992V26.1687C81.0144 27.0015 79.5249 27.4179 77.8226 27.4179C73.8957 27.4179 70.8779 24.6166 70.8779 20.9447ZM80.8984 19.4873C80.7629 17.727 79.1574 16.3643 77.1262 16.3643C75.095 16.3643 73.5088 17.6892 73.296 19.4873H80.8984Z"
        fill="#301748"
      />
      <path d="M87.166 27.0204V9.91H89.4487V27.0393H87.166V27.0204Z" fill="#301748" />
      <path d="M94.1494 27.0204V9.91H96.4321V27.0393H94.1494V27.0204Z" fill="#301748" />
      <path
        d="M100.359 23.2349C100.359 20.8879 102.583 19.1655 105.64 19.1655C107.246 19.1655 108.6 19.6387 109.451 20.4904V19.0519C109.451 17.3485 108.213 16.3453 105.949 16.3453C104.402 16.3453 103.067 16.8942 101.887 17.5567V15.3422C103.28 14.6419 104.808 14.2633 106.375 14.2633C109.625 14.2633 111.733 16.0614 111.733 18.9005V27.0204H109.451V26.0173C108.812 26.6986 107.304 27.4179 105.64 27.4179C102.525 27.4368 100.359 25.6955 100.359 23.2349ZM109.489 23.2349C109.489 21.7396 107.632 21.0583 105.93 21.0583C104.228 21.0583 102.622 21.7586 102.622 23.2349C102.622 24.7113 104.228 25.4116 105.93 25.4116C107.632 25.4116 109.489 24.7491 109.489 23.2349Z"
        fill="#301748"
      />
      <path
        d="M115.757 23.1214C117.363 24.2192 119.259 25.2412 121.464 25.2412C123.785 25.2412 125.41 24.1624 125.41 22.6671C125.41 21.1718 124.482 20.5094 122.644 19.8469L119.897 18.9005C116.995 17.8785 115.641 16.3643 115.641 14.093C115.641 11.2728 117.962 9.51253 121.657 9.51253C123.534 9.51253 125.371 10.0236 126.958 10.9699V13.4873C125.41 12.3895 123.746 11.6892 121.773 11.6892C119.568 11.6892 118.137 12.6734 118.137 14.093C118.137 15.5125 119.259 16.1371 120.825 16.7239L123.553 17.7081C126.609 18.8059 127.905 20.2822 127.905 22.686C127.905 25.6387 125.487 27.4368 121.522 27.4368C119.452 27.399 117.459 26.7744 115.757 25.6198V23.1214Z"
        fill="#301748"
      />
      <path
        d="M135.005 27.0204L130.827 14.6419H133.109L135.759 23.1403L138.39 14.6419H140.75L143.381 23.1403L146.051 14.6608H148.333L144.155 27.0393H142.627L139.57 17.9731L136.514 27.0393H135.005V27.0204Z"
        fill="#301748"
      />
      <path
        d="M151.061 23.2349C151.061 20.8879 153.285 19.1655 156.342 19.1655C157.947 19.1655 159.301 19.6387 160.152 20.4904V19.0519C160.152 17.3485 158.914 16.3453 156.651 16.3453C155.104 16.3453 153.769 16.8942 152.589 17.5567V15.3422C153.982 14.6419 155.51 14.2633 157.077 14.2633C160.327 14.2633 162.435 16.0614 162.435 18.9005V27.0204H160.152V26.0173C159.495 26.6986 158.005 27.4179 156.342 27.4179C153.246 27.4368 151.061 25.6955 151.061 23.2349ZM160.21 23.2349C160.21 21.7396 158.353 21.0583 156.651 21.0583C154.949 21.0583 153.343 21.7586 153.343 23.2349C153.343 24.7113 154.949 25.4116 156.651 25.4116C158.353 25.4116 160.21 24.7491 160.21 23.2349Z"
        fill="#301748"
      />
      <path
        d="M167.039 31.1655V14.6608H169.322V16.3264C170.54 14.9447 171.972 14.2822 173.674 14.2822C176.769 14.2822 180 16.686 180 20.7933C180 24.522 177.234 27.3611 173.674 27.3611C172.011 27.38 170.405 26.6797 169.322 25.4305V31.1655H167.039ZM177.717 20.7744C177.717 18.1245 175.937 16.3643 173.345 16.3643C171.682 16.3643 170.095 17.3863 169.341 18.9573V22.686C170.057 24.2191 171.624 25.2223 173.345 25.2602C176.015 25.2602 177.717 23.5378 177.717 20.7744Z"
        fill="#301748"
      />
    </g>
    <defs>
      <linearGradient
        id="paint0_linear_5784_1733"
        x1="34.9032"
        y1="19.1996"
        x2="6.32178"
        y2="19.1996"
        gradientUnits="userSpaceOnUse"
      >
        <stop stop-color="#E2107B" />
        <stop offset="1" stop-color="#301748" />
      </linearGradient>
      <linearGradient
        id="paint1_linear_5784_1733"
        x1="13.9123"
        y1="17.0267"
        x2="12.179"
        y2="17.0267"
        gradientUnits="userSpaceOnUse"
      >
        <stop stop-color="#E2107B" />
        <stop offset="1" stop-color="#0D1126" />
      </linearGradient>
      <linearGradient
        id="paint2_linear_5784_1733"
        x1="16.6786"
        y1="5.36741"
        x2="14.9028"
        y2="5.36741"
        gradientUnits="userSpaceOnUse"
      >
        <stop stop-color="#E2107B" />
        <stop offset="1" stop-color="#0D1126" />
      </linearGradient>
      <linearGradient
        id="paint3_linear_5784_1733"
        x1="6.38748"
        y1="13.7996"
        x2="4.78382"
        y2="13.7996"
        gradientUnits="userSpaceOnUse"
      >
        <stop stop-color="#E2107B" />
        <stop offset="1" stop-color="#0D1126" />
      </linearGradient>
      <linearGradient
        id="paint4_linear_5784_1733"
        x1="34.8507"
        y1="27.5731"
        x2="20.6563"
        y2="21.9806"
        gradientUnits="userSpaceOnUse"
      >
        <stop stop-color="#301748" />
        <stop offset="1" stop-color="#E2107B" />
      </linearGradient>
      <clipPath id="clip0_5784_1733">
        <rect width="180" height="36" fill="white" transform="translate(0 0.124512)" />
      </clipPath>
    </defs>
  </svg>
