<svg width="400" height="400" viewBox="0 0 400 400" fill="none" xmlns="http://www.w3.org/2000/svg">
<rect width="400" height="400" rx="200" fill="#0F0F0F"/>
<path d="M317.458 193.562C314.09 193.562 310.721 193.983 307.774 195.667C303.985 198.193 301.038 204.088 301.038 209.561C301.038 214.193 305.248 220.087 309.879 222.614C322.932 229.35 336.826 214.193 330.089 201.562C327.984 196.93 322.511 193.983 317.458 193.562Z" fill="#FF6600"/>
<path d="M211.995 103.462C216.627 104.304 223.363 120.304 224.627 133.777C225.048 136.724 224.627 143.04 224.627 147.671C224.205 154.829 223.363 156.934 220.837 160.302C215.364 168.302 205.259 173.354 192.207 174.196C188.417 174.617 182.102 175.038 178.733 175.038C173.26 174.617 172.839 174.617 173.681 172.512C174.102 171.67 175.365 168.723 176.207 166.197C181.681 149.355 193.891 122.409 200.206 113.988C204.417 107.672 209.469 103.041 211.995 103.462ZM207.785 66.8318C205.68 66.8318 203.154 67.2528 199.364 68.516C193.891 70.2001 188.838 73.1474 184.207 76.9367C177.47 81.9891 176.628 82.4102 176.207 80.305C175.786 76.9367 170.313 72.3053 165.26 71.8842C160.208 71.0422 153.892 73.5684 151.366 77.3577C150.103 79.0419 146.735 84.5154 143.366 89.9889C137.472 100.094 135.367 107.251 137.472 111.462C138.735 113.988 138.314 116.935 134.524 135.04C127.788 167.881 116.841 235.668 116.841 248.72C116.42 278.192 116.841 305.981 117.262 311.454C118.525 319.875 121.472 325.77 126.946 329.559C132.419 333.348 135.367 334.19 141.261 332.506C147.156 331.243 150.103 329.138 153.471 324.507C157.261 319.033 158.103 313.139 158.103 287.455C157.682 256.299 161.892 207.037 164.418 204.09C165.26 203.669 170.734 203.248 177.049 204.09C200.627 206.195 219.995 201.985 234.731 191.038C250.731 179.249 257.467 165.776 258.731 143.04C259.994 113.146 250.31 86.6206 233.047 73.1474C227.574 69.358 225.89 68.937 217.469 67.6739C213.258 66.8318 210.311 66.4108 207.785 66.8318Z" fill="white"/>
</svg>
