<svg
    width="176"
    height="33"
    viewBox="0 0 176 33"
    xmlns="http://www.w3.org/2000/svg"
  >
    <g clipPath="url(#clip0_5784_1571)">
      <path
        d="M44.7744 26.1027L50.7485 10.8811H52.3497L58.3238 26.1027H56.7841L55.306 22.2378H47.7306L46.2525 26.1027H44.7744ZM48.1002 21.227H54.9364L51.4875 12.3081L48.1002 21.227Z"
        fill="#0059DA"
      />
      <path
        d="M58.3236 26.3405H56.7839C56.6607 26.3405 56.5376 26.2811 56.5376 26.1621L55.121 22.4757H47.9152L46.4987 26.1621C46.4371 26.2811 46.3755 26.3405 46.2524 26.3405H44.7742C44.7127 26.3405 44.5895 26.2811 44.5279 26.2216C44.4663 26.1621 44.4663 26.0432 44.4663 25.9838L50.4403 10.7621C50.5019 10.6432 50.5635 10.5838 50.6867 10.5838H52.288C52.4112 10.5838 52.5343 10.6432 52.5343 10.7621L58.5084 25.9838C58.57 26.0432 58.5084 26.1621 58.4468 26.2216C58.3852 26.2811 58.3852 26.3405 58.3236 26.3405ZM56.9687 25.8649H57.8925L52.1032 11.1784H50.8715L45.2054 25.8649H46.1292L47.5457 22.1784C47.6073 22.0594 47.6689 22 47.7921 22H55.3674C55.4906 22 55.6137 22.0594 55.6137 22.1784L56.9687 25.8649ZM54.9363 21.5243H48.1C48.0384 21.5243 47.9152 21.4649 47.8536 21.4054C47.7921 21.3459 47.7921 21.227 47.7921 21.1676L51.1794 12.2486C51.241 12.1297 51.3026 12.0703 51.4258 12.0703C51.5489 12.0703 51.6721 12.1297 51.6721 12.2486L55.121 21.1676C55.1826 21.227 55.121 21.3459 55.0594 21.4054C55.121 21.4649 55.0594 21.5243 54.9363 21.5243ZM48.5311 20.9892H54.5667L51.5489 13.0811L48.5311 20.9892Z"
        fill="#0059DA"
      />
      <path
        d="M71.565 25.3892C73.4127 25.3892 74.7676 24.6757 74.7676 23.0108V21.8811H76.1225V23.2487C76.1225 25.2108 74.5213 26.3405 71.565 26.3405C68.424 26.3405 66.8228 25.2108 66.8228 23.2487V17.6C66.8228 15.6378 68.424 14.5081 71.565 14.5081C74.5213 14.5081 76.1225 15.6378 76.1225 17.6V19.146H74.7676V17.7784C74.7676 16.1135 73.5974 15.4 71.565 15.4C69.2863 15.4 68.1777 16.1135 68.1777 17.7784V22.9514C68.2393 24.6162 69.471 25.3892 71.565 25.3892Z"
        fill="#0059DA"
      />
      <path
        d="M71.5654 26.5784C68.3012 26.5784 66.5151 25.3892 66.5151 23.1892V17.5405C66.5151 15.3405 68.3012 14.1513 71.5654 14.1513C74.6448 14.1513 76.3692 15.4 76.3692 17.5405V19.1459C76.3692 19.2649 76.246 19.3838 76.1229 19.3838H74.7679C74.6448 19.3838 74.5216 19.2649 74.5216 19.1459V17.7784C74.5216 16.3513 73.5362 15.6378 71.5654 15.6378C69.4098 15.6378 68.486 16.2919 68.486 17.7784V22.9513C68.486 24.3784 69.4714 25.0919 71.5654 25.0919C72.6739 25.0919 74.5216 24.7946 74.5216 22.9513V21.8216C74.5216 21.7027 74.6448 21.5838 74.7679 21.5838H76.1229C76.246 21.5838 76.3692 21.7027 76.3692 21.8216V23.1892C76.4308 25.3297 74.6448 26.5784 71.5654 26.5784ZM71.5654 14.7459C69.5329 14.7459 67.0694 15.2216 67.0694 17.6V23.2486C67.0694 25.627 69.5329 26.1027 71.5654 26.1027C74.3368 26.1027 75.8765 25.0919 75.8765 23.2486V22.1189H75.0759V23.0108C75.0759 24.6757 73.7825 25.6865 71.6269 25.6865C68.6091 25.6865 67.9932 24.2594 67.9932 23.0108V17.8378C67.9932 16.054 69.1634 15.1621 71.6269 15.1621C74.5216 15.1621 75.0759 16.5892 75.0759 17.8378V18.9081H75.8765V17.6C75.8765 15.7567 74.3368 14.7459 71.5654 14.7459Z"
        fill="#0059DA"
      />
      <path
        d="M79.6948 26.1027V10.8811H81.0498V15.4595C82.1584 14.9838 83.5749 14.5081 85.1146 14.5081C87.3933 14.5081 88.5019 15.5784 88.5019 17.3622V26.1622H87.0854V17.5405C87.0854 16.054 86.2232 15.4595 84.8682 15.4595C83.6365 15.4595 82.1583 15.9946 81.1113 16.4703V26.1027H79.6948Z"
        fill="#0059DA"
      />
      <path
        d="M88.4406 26.3405H87.0856C86.9625 26.3405 86.8393 26.2216 86.8393 26.1027V17.5405C86.8393 16.2919 86.2234 15.6973 84.8685 15.6973C83.5135 15.6973 82.097 16.2919 81.358 16.5892V26.1027C81.358 26.2216 81.2348 26.3405 81.1116 26.3405H79.6951C79.5719 26.3405 79.4487 26.2216 79.4487 26.1027V10.8811C79.4487 10.7622 79.5719 10.6432 79.6951 10.6432H81.05C81.1732 10.6432 81.2964 10.7622 81.2964 10.8811V15.0432C82.2818 14.627 83.6367 14.2108 85.0532 14.2108C87.3936 14.2108 88.6869 15.3405 88.6869 17.3027V26.1027C88.7485 26.2216 88.6253 26.3405 88.4406 26.3405ZM87.332 25.8649H88.1942V17.3027C88.1942 16.4703 87.9479 15.8757 87.4552 15.4C86.9625 14.9243 86.1618 14.6865 85.1148 14.6865C83.6367 14.6865 82.1586 15.2216 81.1732 15.6378C81.1116 15.6973 80.9884 15.6378 80.9268 15.6378C80.8653 15.5784 80.8037 15.5189 80.8037 15.4V11.1189H79.9414V25.8054H80.8037V16.4703C80.8037 16.3514 80.8653 16.2919 80.9884 16.2324C81.6659 15.9351 83.3904 15.1622 84.8685 15.1622C86.5314 15.1622 87.3936 15.9946 87.3936 17.5405V25.8649H87.332Z"
        fill="#0059DA"
      />
      <path
        d="M96.6933 25.3892C98.7873 25.3892 100.081 24.6162 100.081 22.773V22.2973H101.436V23.0108C101.436 25.0919 99.6495 26.3405 96.6317 26.3405C93.6139 26.3405 92.0742 25.1513 92.0742 23.0108V17.7784C92.0742 15.6973 93.7371 14.4486 96.6317 14.4486C99.5264 14.4486 101.436 15.6378 101.436 17.7784V20.8703H93.4907V22.773C93.4907 24.6162 94.4762 25.3892 96.6933 25.3892ZM93.4907 19.9784H100.081V18.0162C100.081 16.173 98.7257 15.4 96.6933 15.4C94.5377 15.4 93.4907 16.173 93.4907 18.0162V19.9784Z"
        fill="#0059DA"
      />
      <path
        d="M96.693 26.5784C95.2149 26.5784 93.9832 26.2811 93.1825 25.6865C92.3203 25.0919 91.8892 24.1405 91.8892 23.0108V17.7784C91.8892 16.6487 92.3203 15.7568 93.1825 15.1027C94.0447 14.5081 95.2149 14.2108 96.693 14.2108C99.834 14.2108 101.743 15.5189 101.743 17.7784V20.8703C101.743 20.9892 101.62 21.1081 101.497 21.1081H93.7984V22.773C93.7984 24.4378 94.6606 25.0919 96.693 25.0919C98.7254 25.0919 99.834 24.3189 99.834 22.773V22.2973C99.834 22.1784 99.9572 22.0595 100.08 22.0595H101.435C101.558 22.0595 101.682 22.1784 101.682 22.2973V23.0108C101.743 25.2703 99.834 26.5784 96.693 26.5784ZM96.693 14.746C95.3381 14.746 94.2295 15.0432 93.4905 15.5784C92.7514 16.1135 92.3819 16.827 92.3819 17.7784V23.0108C92.3819 23.9622 92.7514 24.7351 93.4905 25.2108C94.2295 25.746 95.3381 26.0432 96.693 26.0432C99.5877 26.0432 101.189 24.9135 101.189 23.0108V22.5351H100.327V22.773C100.327 24.6162 99.0334 25.627 96.6314 25.627C94.2295 25.627 93.1825 24.7351 93.1825 22.773V20.8703C93.1825 20.7514 93.3057 20.6324 93.4289 20.6324H101.127V17.7784C101.189 15.8162 99.5261 14.746 96.693 14.746ZM100.08 20.2757H93.4905C93.3673 20.2757 93.2441 20.1568 93.2441 20.0378V18.0757C93.2441 16.1135 94.3527 15.2216 96.693 15.2216C99.0334 15.2216 100.388 16.2324 100.388 18.0757V20.0378C100.327 20.1568 100.204 20.2757 100.08 20.2757ZM93.7984 19.7405H99.834V18.0162C99.834 16.4703 98.787 15.6973 96.693 15.6973C94.599 15.6973 93.7984 16.3514 93.7984 18.0162V19.7405Z"
        fill="#0059DA"
      />
      <path
        d="M106.177 15.4C107.04 14.9838 108.395 14.4486 109.75 14.4486C111.105 14.4486 112.152 14.8649 112.706 15.5784C113.938 14.9243 115.416 14.4486 116.894 14.4486C119.111 14.4486 120.343 15.6378 120.343 17.4811V26.1027H118.988V17.6595C118.988 16.2324 118.31 15.4 116.709 15.4C115.539 15.4 114.307 15.8162 113.199 16.4703C113.26 16.7676 113.322 17.1243 113.322 17.4811V26.1027H111.967V17.6595C111.967 16.2324 111.289 15.4 109.688 15.4C108.333 15.4 107.224 15.8162 106.362 16.3513V26.1622H105.007V14.5676H106.054L106.177 15.4Z"
        fill="#0059DA"
      />
      <path
        d="M120.404 26.3405H119.049C118.926 26.3405 118.803 26.2216 118.803 26.1027V17.6594C118.803 16.2919 118.126 15.6378 116.771 15.6378C115.785 15.6378 114.738 15.9351 113.568 16.5892C113.63 16.8865 113.691 17.1838 113.691 17.4811V26.1027C113.691 26.2216 113.568 26.3405 113.445 26.3405H112.09C111.967 26.3405 111.844 26.2216 111.844 26.1027V17.6594C111.844 16.2919 111.166 15.6378 109.811 15.6378C108.456 15.6378 107.409 16.054 106.793 16.4703V26.1027C106.793 26.2216 106.67 26.3405 106.547 26.3405H105.192C105.069 26.3405 104.946 26.2216 104.946 26.1027V14.5676C104.946 14.4486 105.069 14.3297 105.192 14.3297H106.239C106.362 14.3297 106.486 14.3892 106.486 14.5081L106.609 14.9838C107.533 14.5676 108.764 14.1513 109.996 14.1513C111.351 14.1513 112.398 14.5081 113.075 15.2216C114.492 14.5081 115.908 14.1513 117.202 14.1513C119.542 14.1513 120.897 15.4 120.897 17.4216V26.0432C120.712 26.2216 120.589 26.3405 120.404 26.3405ZM119.296 25.8649H120.158V17.5405C120.158 15.7567 119.049 14.8054 117.017 14.8054C115.724 14.8054 114.369 15.1621 112.952 15.9351C112.829 15.9946 112.706 15.9946 112.583 15.8757C112.09 15.2216 111.105 14.8649 109.811 14.8649C108.518 14.8649 107.225 15.3405 106.362 15.8162C106.301 15.8757 106.178 15.8757 106.116 15.8162C106.054 15.7567 105.993 15.6973 105.993 15.6378L105.87 15.0432H105.315V26.0432H106.178V16.5297C106.178 16.4108 106.239 16.3513 106.301 16.2919C107.04 15.8757 108.21 15.3405 109.75 15.3405C111.413 15.3405 112.336 16.2324 112.336 17.8973V26.0432H113.199V17.7189C113.199 17.4216 113.137 17.1243 113.075 16.7676C113.075 16.6486 113.075 16.5297 113.199 16.4703C114.492 15.7567 115.724 15.3405 116.832 15.3405C118.495 15.3405 119.419 16.2324 119.419 17.8973V25.8649H119.296Z"
        fill="#0059DA"
      />
      <path
        d="M133.277 14.6865L128.411 27.3514C127.426 29.9081 125.824 30.0865 124.346 30.0865C123.915 30.0865 123.484 30.0865 123.176 29.9676V29.0162C123.484 29.0757 123.854 29.1351 124.285 29.1351C125.27 29.1351 126.44 28.8973 127.118 27.0541L127.426 26.1027L122.807 14.6865H124.285L128.103 24.5568L131.675 14.6865H133.277Z"
        fill="#0059DA"
      />
      <path
        d="M124.346 30.3838C123.792 30.3838 123.422 30.3243 123.114 30.2649C122.991 30.2054 122.93 30.1459 122.93 30.027V29.0757C122.93 29.0162 122.991 28.8973 123.053 28.8378C123.114 28.7784 123.237 28.7784 123.299 28.7784C123.607 28.8378 124.038 28.8973 124.346 28.8973C125.331 28.8973 126.317 28.6595 126.933 26.9946L127.179 26.1027L122.622 14.7459C122.56 14.6865 122.622 14.5676 122.622 14.5081C122.683 14.4486 122.745 14.3892 122.868 14.3892H124.346C124.469 14.3892 124.592 14.4486 124.592 14.5676L128.165 23.7838L131.49 14.5676C131.552 14.4486 131.613 14.3892 131.737 14.3892H133.276C133.338 14.3892 133.461 14.4486 133.523 14.5081C133.584 14.5676 133.584 14.6865 133.584 14.7459L128.657 27.4703C127.61 30.1459 125.886 30.3838 124.346 30.3838ZM123.422 29.7892C123.669 29.8486 123.977 29.8486 124.346 29.8486C125.763 29.8486 127.179 29.6703 128.103 27.2919L132.845 14.9838H131.921L128.411 24.6757C128.349 24.7946 128.288 24.8541 128.165 24.8541C128.041 24.8541 127.918 24.7946 127.918 24.6757L124.161 14.9838H123.237L127.733 26.0432V26.2216L127.425 27.173C126.686 29.1946 125.393 29.4324 124.346 29.4324C123.977 29.4324 123.73 29.4324 123.484 29.373V29.7892H123.422Z"
        fill="#0059DA"
      />
      <path d="M61.7729 26.1027V10.8811H63.1279V26.1027H61.7729Z" fill="#0059DA" />
      <path
        d="M63.1277 26.3405H61.7727C61.6495 26.3405 61.5264 26.2216 61.5264 26.1027V10.8811C61.5264 10.7622 61.6495 10.6432 61.7727 10.6432H63.1277C63.2508 10.6432 63.374 10.7622 63.374 10.8811V26.1027C63.4356 26.2216 63.3124 26.3405 63.1277 26.3405ZM62.0191 25.8649H62.8813V11.1189H62.0191V25.8649Z"
        fill="#0059DA"
      />
      <path
        d="M141.468 26.1027V10.8811H145.348C149.659 10.8811 151.322 12.427 151.322 15.0432V15.9946C151.322 18.4324 149.659 19.9189 145.348 19.9189H143.007V26.1027H141.468ZM143.007 11.8919V18.9081H145.409C148.489 18.9081 149.844 18.0757 149.844 15.9946V15.1027C149.844 12.9027 148.489 11.8919 145.533 11.8919H143.007Z"
        fill="#0059DA"
      />
      <path
        d="M143.007 26.6973H141.467C141.16 26.6973 140.852 26.4595 140.852 26.1027V10.8811C140.852 10.5838 141.098 10.2865 141.467 10.2865H145.347C147.626 10.2865 149.228 10.7027 150.336 11.5351C151.383 12.3081 151.937 13.4973 151.937 15.0433V15.9946C151.937 17.4811 151.383 18.6108 150.336 19.3243C149.228 20.0973 147.626 20.4541 145.347 20.4541H143.623V26.0433C143.623 26.4 143.377 26.6973 143.007 26.6973ZM142.083 25.5081H142.391V19.9189C142.391 19.6811 142.514 19.5027 142.699 19.3838C142.514 19.2649 142.391 19.0865 142.391 18.8487V11.8919C142.391 11.7135 142.453 11.5946 142.576 11.4757H142.083V25.5081ZM148.92 12.0108C148.981 12.0703 149.104 12.1297 149.166 12.1892C150.028 12.8433 150.459 13.7946 150.459 15.1027V15.9946C150.459 17.2433 150.028 18.1351 149.166 18.7297C149.351 18.6703 149.535 18.5514 149.659 18.4324C150.398 17.8973 150.767 17.1243 150.767 16.0541V14.9838C150.767 13.9135 150.459 12.7243 148.92 12.0108ZM143.623 18.3135H145.409C148.612 18.3135 149.228 17.4216 149.228 15.9351V15.0433C149.228 13.6757 148.796 12.427 145.471 12.427H143.623V18.3135Z"
        fill="#0059DA"
      />
      <path
        d="M153.477 22.773C153.477 20.8703 154.894 19.8595 157.85 19.8595H161.114V17.4216C161.114 15.9946 160.313 15.4 158.281 15.4C156.249 15.4 155.571 15.9946 155.571 17.4216V17.9567H154.216V17.3622C154.216 15.3405 155.571 14.4486 158.404 14.4486C161.422 14.4486 162.469 15.4595 162.469 17.3622V26.1622H161.422L161.176 25.3297C159.944 25.9243 158.404 26.2216 156.988 26.2216C154.586 26.2216 153.416 25.2703 153.416 23.427V22.773H153.477ZM161.114 24.4378V20.7513H157.911C155.817 20.7513 154.894 21.3459 154.894 22.7135V23.3676C154.894 24.6757 155.694 25.2703 157.357 25.2703C158.527 25.2703 160.067 24.973 161.114 24.4378Z"
        fill="#0059DA"
      />
      <path
        d="M157.049 26.8162C155.694 26.8162 154.647 26.5189 153.97 25.9838C153.231 25.3892 152.861 24.5568 152.861 23.427V22.773C152.861 21.1676 153.724 19.2649 157.85 19.2649H160.56V17.4216C160.56 16.6487 160.375 15.9946 158.343 15.9946C156.31 15.9946 156.249 16.5892 156.249 17.4216V17.9568C156.249 18.2541 156.002 18.5514 155.633 18.5514H154.278C153.97 18.5514 153.662 18.3135 153.662 17.9568V17.3622C153.662 16.173 154.093 15.2811 154.955 14.6865C155.756 14.1514 156.865 13.8541 158.466 13.8541C160.067 13.8541 161.237 14.1514 162.038 14.6865C162.839 15.2811 163.208 16.1135 163.208 17.3027V26.1027C163.208 26.4 162.962 26.6973 162.592 26.6973H161.545C161.299 26.6973 161.053 26.5189 160.929 26.2811L160.868 26.1027C159.698 26.5784 158.343 26.8162 157.049 26.8162ZM161.607 24.8541C161.73 24.9135 161.853 25.0324 161.853 25.2108L161.915 25.4487V17.3622C161.915 16.6487 161.792 15.9351 160.929 15.5189C161.422 15.8757 161.73 16.5297 161.73 17.4216V19.8595C161.73 20.0378 161.668 20.2162 161.484 20.3351C161.607 20.4541 161.73 20.6324 161.73 20.8108V24.4973C161.73 24.5568 161.668 24.7351 161.607 24.8541ZM154.709 21.227C154.155 21.7027 154.093 22.2973 154.093 22.773V23.427C154.093 24.2 154.339 24.7351 154.771 25.0324C154.832 25.0919 154.894 25.0919 154.955 25.1514C154.463 24.6757 154.278 24.0216 154.278 23.427V22.7135C154.278 22.0595 154.463 21.5838 154.709 21.227ZM157.912 21.346C155.694 21.346 155.51 22 155.51 22.7135V23.3676C155.51 24.0216 155.633 24.6757 157.357 24.6757C158.466 24.6757 159.636 24.4378 160.56 24.0216V21.2865H157.912V21.346ZM154.894 17.3622H155.017C155.017 16.6487 155.202 16.1135 155.51 15.7568C155.078 16.0541 154.894 16.5892 154.894 17.3622Z"
        fill="#0059DA"
      />
      <path
        d="M175.403 14.6865L170.537 27.3514C169.552 29.9081 167.95 30.0865 166.472 30.0865C166.041 30.0865 165.61 30.0865 165.302 29.9676V29.0162C165.61 29.0757 165.98 29.1351 166.411 29.1351C167.396 29.1351 168.566 28.8973 169.244 27.0541L169.552 26.1027L164.933 14.6865H166.411L170.229 24.5568L173.801 14.6865H175.403Z"
        fill="#0059DA"
      />
      <path
        d="M166.472 30.6811C165.856 30.6811 165.487 30.6216 165.117 30.5622C164.871 30.5027 164.686 30.2649 164.686 29.9676V29.0162C164.686 28.8378 164.748 28.6595 164.933 28.5405C165.056 28.4216 165.302 28.4216 165.487 28.4216C165.733 28.4811 166.164 28.4811 166.472 28.4811C167.273 28.4811 168.197 28.3622 168.751 26.8162L168.997 26.0433L164.44 14.8054C164.378 14.627 164.378 14.4487 164.501 14.2703C164.625 14.0919 164.809 14.0324 164.994 14.0324H166.472C166.719 14.0324 166.965 14.2108 167.027 14.3892L170.291 22.773L173.309 14.4487C173.37 14.2108 173.616 14.0324 173.863 14.0324H175.403C175.587 14.0324 175.772 14.1514 175.895 14.2703C176.018 14.4487 176.018 14.627 175.957 14.8054L171.091 27.4703C170.044 30.3243 168.258 30.6811 166.472 30.6811ZM165.856 15.2811L170.168 25.9243C170.229 26.0433 170.229 26.1622 170.168 26.2811L169.86 27.2324C169.736 27.5892 169.552 27.946 169.367 28.2433C169.552 27.946 169.736 27.5892 169.921 27.1135L170.783 24.7946C170.66 24.973 170.475 25.0919 170.229 25.0919C169.983 25.0919 169.736 24.9135 169.675 24.7351L165.98 15.2216H165.856V15.2811ZM174.294 15.2811L170.968 24.4973L174.479 15.2811H174.294Z"
        fill="#0059DA"
      />
      <path d="M9.85408 16.4108V32.9405H0L9.85408 16.4108Z" fill="#0059DA" />
      <path d="M29.3154 16.4108V32.9405H39.1695L29.3154 16.4108Z" fill="#0059DA" />
      <path
        d="M20.2625 20.0973C22.1717 19.9784 23.9578 20.2162 25.1895 20.7514V9.51351L19.5235 0L13.9189 9.51351V22.4757C14.9659 21.5243 17.5526 20.3351 20.2625 20.0973Z"
        fill="#0059DA"
      />
      <path
        d="M25.251 24.973C24.0808 24.2 22.6643 23.7838 21.063 23.7838C18.2916 23.7838 16.0744 25.4486 14.8426 27.4703C14.2883 28.3622 14.042 29.7297 14.042 30.8595C14.042 31.6324 14.1652 32.3459 14.4115 33H25.3126V24.973H25.251Z"
        fill="#0059DA"
      />
    </g>
    <defs>
      <clipPath id="clip0_5784_1571">
        <rect width="176" height="33" fill="white" />
      </clipPath>
    </defs>
  </svg>

