<svg width="19" height="19" viewBox="0 0 19 19" fill="none" xmlns="http://www.w3.org/2000/svg">
<g clip-path="url(#clip0_5163_452)">
<path d="M5.81396 6.25648C5.54384 6.25648 5.26123 6.60831 4.94593 7.34753C4.5768 8.30977 4.15672 9.40467 4.15672 9.40467C4.15672 9.40467 4.61332 10.7841 4.86999 11.4618C5.12569 12.1386 5.27276 12.5538 5.91009 12.5538H5.91298C6.1831 12.5538 6.46571 12.202 6.78101 11.4618C7.15015 10.4996 7.57023 9.40467 7.57023 9.40467C7.57023 9.40467 7.11362 8.02524 6.85696 7.34753C6.60125 6.66983 6.45322 6.25455 5.81493 6.25648H5.81396Z" fill="#1C1C1C"/>
<path d="M11.2164 4.12634C10.3281 4.12634 9.96382 4.98188 9.73792 5.4558C9.51298 5.92971 7.56927 9.40474 7.56927 9.40474C7.56927 9.40474 9.39186 12.8086 9.6639 13.3537C9.93594 13.8997 10.3733 14.6831 11.2615 14.6831C12.1498 14.6831 12.5141 13.8276 12.74 13.3537C12.9649 12.8798 14.9087 9.40474 14.9087 9.40474C14.9087 9.40474 13.0861 6.0018 12.814 5.4558C12.541 4.90979 12.1046 4.12634 11.2164 4.12634Z" fill="#1C1C1C"/>
<path d="M9.50048 0.401367C4.52969 0.401367 0.5 4.43106 0.5 9.40185C0.5 14.3726 4.52969 18.4023 9.50048 18.4023C14.4713 18.4023 18.501 14.3726 18.501 9.40185C18.501 4.43106 14.4713 0.401367 9.50048 0.401367ZM9.50048 16.6355C5.50539 16.6355 2.26684 13.3969 2.26684 9.40185C2.26684 5.40676 5.50539 2.1682 9.50048 2.1682C13.4956 2.1682 16.7341 5.40676 16.7341 9.40185C16.7341 13.3969 13.4956 16.6355 9.50048 16.6355Z" fill="#1C1C1C"/>
</g>
<defs>
<clipPath id="clip0_5163_452">
<rect width="18" height="18" fill="white" transform="translate(0.5 0.401367)"/>
</clipPath>
</defs>
</svg>
