<svg xmlns="http://www.w3.org/2000/svg" width="3041.274" height="548.042" viewBox="0 0 3041.274 548.042" fill="#4EE59A">
  <g transform="translate(-0.001 -31.4)">
    <path d="M9201-17475.025c0-148.584,120.449-269.033,269.033-269.033s269.034,120.449,269.034,269.033-120.454,269.035-269.034,269.035S9201-17326.439,9201-17475.025Zm52.806,0c0,119.422,96.808,216.229,216.228,216.229s216.229-96.807,216.229-216.229-96.812-216.229-216.229-216.229S9253.807-17594.445,9253.807-17475.025Zm221.148,118.174c-8.145-16.316-62.625-118.053-62.625-118.053h219.363s-58.073,103.883-64.812,118.053-17.63,39.75-44.18,39.75S9483.1-17340.529,9474.955-17356.852Zm-143.32-56.564c-7.65-20.266-21.309-61.488-21.309-61.488s12.554-32.723,23.589-61.49c9.432-22.105,17.865-32.609,25.943-32.627,19.1-.041,23.509,12.361,31.159,32.627s21.309,61.49,21.309,61.49-12.549,32.727-23.584,61.488c-9.432,22.105-17.866,32.611-25.944,32.633h-.082C9343.688-17380.783,9339.278-17393.174,9331.635-17413.416Zm226.181-61.488H9412.33s58.074-103.885,64.812-118.055,17.631-39.748,44.181-39.748,39.6,23.428,47.746,39.748,62.625,118.055,62.625,118.055Z" transform="translate(-9201 17775.459)"/>
    <path d="M11.875,0,140.6-332.5h52.25L320.625,0H266L190-200.45q-1.425-3.325-5.462-16.15t-9.263-28.5q-5.225-15.675-9.5-28.738t-5.7-16.862L171-291.175q-2.85,8.075-6.887,20.425t-8.55,26.125q-4.513,13.775-8.788,25.887L139.65-198.55,64.125,0Zm57-82.65,19-49.4h151.05l21.85,49.4ZM365.75,0V-249.375h49.4v53.2l-9.025,5.7a80.352,80.352,0,0,1,12.112-23.75,91.587,91.587,0,0,1,20.425-20.187,109.342,109.342,0,0,1,26.125-14.013,81.629,81.629,0,0,1,28.738-5.225q21.375,0,37.525,7.125a64.95,64.95,0,0,1,26.6,21.375q10.45,14.25,15.2,35.625l-7.6-1.9,3.325-8.075a80.294,80.294,0,0,1,14.487-20.662A113.311,113.311,0,0,1,604.2-237.5a107.611,107.611,0,0,1,25.175-11.875A85.07,85.07,0,0,1,655.5-253.65q28.025,0,46.313,11.4t27.55,34.675q9.262,23.275,9.263,57.95V0h-49.4V-146.775q0-21.375-5.463-34.913t-16.387-20.187q-10.925-6.65-28.025-6.65a68.373,68.373,0,0,0-24.937,4.512,61.341,61.341,0,0,0-20.187,12.588,57.931,57.931,0,0,0-13.3,18.762,57.245,57.245,0,0,0-4.75,23.512V0h-49.4V-147.725q0-19.475-5.7-33.012T504.45-201.4q-10.925-7.125-26.6-7.125a66.509,66.509,0,0,0-24.7,4.512,64.139,64.139,0,0,0-19.95,12.35,55.349,55.349,0,0,0-13.3,18.525,56.076,56.076,0,0,0-4.75,23.037V0ZM804.175,104.5V-249.375h49.4v57l-7.6-4.275q2.85-14.25,16.15-27.312a105.621,105.621,0,0,1,32.537-21.375,99.035,99.035,0,0,1,39.662-8.312q33.725,0,59.85,16.625t41.325,45.6q15.2,28.975,15.2,66.5,0,37.05-14.963,66.263T994.65-12.587Q968.525,4.275,935.75,4.275a105.926,105.926,0,0,1-42.275-8.787A114.211,114.211,0,0,1,858.8-27.075q-14.25-13.775-17.575-28.5l12.35-6.65V104.5Zm123.5-145.35q21.85,0,38.95-10.925A77.414,77.414,0,0,0,993.7-81.7q9.975-19,9.975-43.225t-9.737-42.988A76.051,76.051,0,0,0,967.1-197.6q-17.1-10.925-39.425-10.925T888.25-197.837a75.626,75.626,0,0,0-27.075,29.688q-9.975,19-9.975,43.225T861.175-81.7A77.414,77.414,0,0,0,888.25-51.775Q905.35-40.85,927.675-40.85ZM1104.85,0V-351.5h48.925V0ZM1231.2,0V-249.375h48.925V0Zm23.75-304.475q-15.675,0-24.225-8.075t-8.55-22.8q0-13.775,8.787-22.325t23.988-8.55q15.675,0,24.225,8.075t8.55,22.8q0,13.775-8.788,22.325T1254.95-304.475ZM1386.05,0V-313.025h48.925V0Zm-51.775-201.875v-47.5h158.65v47.5ZM1624.975,4.75q-26.6,0-46.312-12.35t-30.4-34.675q-10.687-22.325-10.687-53.2v-153.9H1586.5v140.6q0,21.85,6.887,37.763t19.95,24.462Q1626.4-38,1644.925-38a67.836,67.836,0,0,0,25.175-4.513A59.212,59.212,0,0,0,1689.813-55.1a57.74,57.74,0,0,0,13.063-19.475,63.577,63.577,0,0,0,4.75-24.7v-150.1h48.925V0h-48.925V-52.25l8.55-5.7a83.082,83.082,0,0,1-19.238,31.825,100.433,100.433,0,0,1-32.062,22.563A96.331,96.331,0,0,1,1624.975,4.75Zm304,0q-34.2,0-61.037-16.863t-42.512-46.075Q1809.75-87.4,1809.75-124.925t15.438-66.737q15.437-29.213,42.037-46.075T1927.55-254.6a109.929,109.929,0,0,1,35.862,5.938,113.682,113.682,0,0,1,31.113,16.15q13.775,10.213,21.612,22.325t7.838,24.462l-14.25.95V-351.5h48.925V0h-48.925V-59.375h9.5q0,11.4-7.6,22.563a88.676,88.676,0,0,1-20.187,20.662,104.92,104.92,0,0,1-28.975,15.2A101.253,101.253,0,0,1,1928.975,4.75Zm6.65-42.275q22.325,0,39.425-11.4a78.057,78.057,0,0,0,26.837-31.113q9.738-19.712,9.738-44.887t-9.738-44.887a78.058,78.058,0,0,0-26.837-31.113q-17.1-11.4-39.425-11.4t-39.425,11.4a78.058,78.058,0,0,0-26.837,31.113q-9.738,19.712-9.738,44.887t9.738,44.887A78.057,78.057,0,0,0,1896.2-48.925Q1913.3-37.525,1935.625-37.525ZM2242.475,4.75q-38.475,0-68.162-16.387a120.854,120.854,0,0,1-46.55-44.888q-16.863-28.5-16.863-65.55,0-29.45,9.5-53.675a128.821,128.821,0,0,1,26.363-42.038,115.953,115.953,0,0,1,40.375-27.55,132.138,132.138,0,0,1,51.063-9.738,110.108,110.108,0,0,1,45.125,9.263,113.131,113.131,0,0,1,36.337,25.412,111.42,111.42,0,0,1,23.75,38.237q8.313,22.087,7.838,48.213l-.475,20.9H2147L2136.075-152H2308.5l-7.125,8.075v-11.4a55.035,55.035,0,0,0-10.45-28.025,64.575,64.575,0,0,0-22.8-19.475,64.171,64.171,0,0,0-29.925-7.125q-25.65,0-43.225,9.738a62.786,62.786,0,0,0-26.6,28.5q-9.025,18.762-9.025,46.312,0,26.125,10.925,45.362A74.435,74.435,0,0,0,2201.15-50.35q19.95,10.45,46.075,10.45a94.371,94.371,0,0,0,34.438-6.175Q2297.575-52.25,2316.1-68.4l24.7,34.675a112.513,112.513,0,0,1-27.787,19.95A173.286,173.286,0,0,1,2278.337-.238,135.939,135.939,0,0,1,2242.475,4.75Z" transform="translate(690 474.942)"/>
  </g>
</svg>
