<svg width="24" height="24" viewBox="0 0 24 24" fill="none" xmlns="http://www.w3.org/2000/svg">
<path d="M10.2267 10.3901C9.66836 10.3901 9.22754 10.8901 9.22754 11.5001C9.22754 12.1101 9.67815 12.6101 10.2267 12.6101C10.7851 12.6101 11.2259 12.1101 11.2259 11.5001C11.2357 10.8901 10.7851 10.3901 10.2267 10.3901ZM13.8022 10.3901C13.2439 10.3901 12.803 10.8901 12.803 11.5001C12.803 12.1101 13.2537 12.6101 13.8022 12.6101C14.3606 12.6101 14.8014 12.1101 14.8014 11.5001C14.8014 10.8901 14.3606 10.3901 13.8022 10.3901Z" fill="#2C3131"/>
<path d="M18.5634 2H5.43687C4.32994 2 3.42871 2.92 3.42871 4.06V17.58C3.42871 18.72 4.32994 19.64 5.43687 19.64H16.5454L16.0263 17.79L17.2801 18.98L18.4654 20.1L20.5716 22V4.06C20.5716 2.92 19.6703 2 18.5634 2ZM14.7822 15.06C14.7822 15.06 14.4295 14.63 14.1356 14.25C15.4189 13.88 15.9087 13.06 15.9087 13.06C15.5071 13.33 15.125 13.52 14.7822 13.65C14.2924 13.86 13.8222 14 13.3618 14.08C12.4214 14.26 11.5593 14.21 10.8246 14.07C10.2663 13.96 9.78626 13.8 9.38463 13.64C9.15932 13.55 8.91443 13.44 8.66953 13.3C8.64014 13.28 8.61075 13.27 8.58136 13.25C8.56177 13.24 8.55198 13.23 8.54218 13.22C8.36585 13.12 8.26789 13.05 8.26789 13.05C8.26789 13.05 8.7381 13.85 9.98218 14.23C9.6883 14.61 9.32585 15.06 9.32585 15.06C7.16096 14.99 6.3381 13.54 6.3381 13.54C6.3381 10.32 7.74871 7.71 7.74871 7.71C9.15932 6.63 10.5014 6.66 10.5014 6.66L10.5993 6.78C8.83606 7.3 8.023 8.09 8.023 8.09C8.023 8.09 8.23851 7.97 8.60096 7.8C9.64912 7.33 10.4818 7.2 10.8246 7.17C10.8834 7.16 10.9324 7.15 10.9912 7.15C11.5887 7.07 12.2646 7.05 12.9699 7.13C13.9005 7.24 14.8997 7.52 15.9185 8.09C15.9185 8.09 15.1446 7.34 13.4793 6.82L13.6165 6.66C13.6165 6.66 14.9585 6.63 16.3691 7.71C16.3691 7.71 17.7797 10.32 17.7797 13.54C17.7797 13.54 16.9471 14.99 14.7822 15.06Z" fill="#2C3131"/>
</svg>
