<svg width="13" height="13" viewBox="0 0 13 13" fill="none" xmlns="http://www.w3.org/2000/svg">
<path d="M7.71875 2.4375C7.71875 2.21312 7.53688 2.03125 7.3125 2.03125H3.25C3.02562 2.03125 2.84375 2.21312 2.84375 2.4375V5.6875C2.84375 5.91188 3.02562 6.09375 3.25 6.09375H7.3125C7.53688 6.09375 7.71875 5.91188 7.71875 5.6875V2.4375ZM6.90625 5.28125H3.65625V2.84375H6.90625V5.28125Z" fill="#828282"/>
<path d="M12.3789 2.88064L10.7587 2.06814C10.5576 1.96737 10.3164 2.0493 10.2161 2.24984C10.1157 2.45058 10.1982 2.69458 10.399 2.79495L11.016 3.10317C10.9995 3.14735 10.9781 3.19406 10.9781 3.24406C10.9781 3.773 11.375 4.21972 11.7812 4.38793V9.33781C11.7812 9.56175 11.5989 9.74406 11.375 9.74406C11.1511 9.74406 10.9688 9.56175 10.9688 9.33781V6.08781C10.9688 5.10694 10.1562 4.28637 9.34375 4.09762V1.61906C9.34375 0.723049 8.63416 0 7.73815 0H2.86315C1.96714 0 1.21875 0.723049 1.21875 1.61906V10.7117L0.630805 11.0056C0.493137 11.0745 0.40625 11.2151 0.40625 11.3691V12.5878C0.40625 12.8122 0.607547 13 0.831898 13H9.7694C9.99375 13 10.1562 12.8122 10.1562 12.5878V11.3691C10.1562 11.2151 10.0694 11.0745 9.9317 11.0056L9.34375 10.7117V4.94394C9.75 5.11215 10.1562 5.55887 10.1562 6.08781V9.33781C10.1562 10.0099 10.7029 10.5566 11.375 10.5566C12.0471 10.5566 12.5938 10.0099 12.5938 9.33781V3.24406C12.5938 3.09012 12.5166 2.94948 12.3789 2.88064ZM9.34375 12.1875H1.21875V11.6202L1.8067 11.3262C1.94436 11.2574 2.03125 11.1167 2.03125 10.9628V1.61903C2.03125 1.17094 2.41503 0.8125 2.86315 0.8125H7.73815C8.18624 0.8125 8.53125 1.17094 8.53125 1.61906V10.9628C8.53125 11.1168 8.61814 11.2574 8.7558 11.3262L9.34375 11.6202V12.1875Z" fill="#828282"/>
</svg>
