<svg width="17" height="22" viewBox="0 0 17 22" fill="none" xmlns="http://www.w3.org/2000/svg">
<path d="M8.35417 0.5032C4.07097 0.4296 0.406972 3.9288 0.307772 8.212C0.234172 11.1192 1.73177 13.6808 4.00537 15.1128C4.11257 15.1784 4.26137 15.1368 4.31897 15.0216L6.09817 11.4728C6.36217 10.9544 6.32057 10.3288 5.99897 9.8424C5.72697 9.4216 5.57017 8.9208 5.57817 8.3848C5.59417 7.0008 6.69017 5.8568 8.06457 5.7816C9.65337 5.7 10.9638 7.0248 10.8406 8.6232C10.7414 9.908 9.70457 10.9368 8.42777 11.044H8.40377C7.81977 11.0856 7.29977 11.4232 7.03737 11.9496L5.25817 15.4904C5.20057 15.6056 5.25817 15.7464 5.37337 15.7864C6.27097 16.132 7.24217 16.3128 8.26457 16.3128C12.5878 16.2888 16.1222 12.7384 16.1222 8.4152C16.1302 4.092 12.663 0.5752 8.35577 0.5L8.35417 0.5032Z" fill="white"/>
<path d="M2.94282 21.5864C4.3982 21.5864 5.57802 20.4066 5.57802 18.9512C5.57802 17.4959 4.3982 16.316 2.94282 16.316C1.48744 16.316 0.307617 17.4959 0.307617 18.9512C0.307617 20.4066 1.48744 21.5864 2.94282 21.5864Z" fill="white"/>
</svg>
