<?xml version="1.0" encoding="utf-8"?>
<!-- Generator: Adobe Illustrator 27.0.0, SVG Export Plug-In . SVG Version: 6.00 Build 0)  -->
<svg version="1.1" id="Layer_1" xmlns="http://www.w3.org/2000/svg" xmlns:xlink="http://www.w3.org/1999/xlink" x="0px" y="0px"
	 viewBox="0 0 1140 384" style="enable-background:new 0 0 1140 384;" xml:space="preserve">
<style type="text/css">
	.st0{fill:#FFFFFF;}
	.st1{fill:#DAE9EB;}
	.st2{fill:#32253E;}
</style>
<g>
	<g>
		<path class="st2" d="M193.8,96c-52-0.9-96.5,41.6-97.7,93.6c-0.9,35.3,17.3,66.4,44.9,83.8c1.3,0.8,3.1,0.3,3.8-1.1l21.6-43.1
			c3.2-6.3,2.7-13.9-1.2-19.8c-3.3-5.1-5.2-11.2-5.1-17.7c0.2-16.8,13.5-30.7,30.2-31.6c19.3-1,35.2,15.1,33.7,34.5
			c-1.2,15.6-13.8,28.1-29.3,29.4c-0.1,0-0.2,0-0.3,0c-7.1,0.5-13.4,4.6-16.6,11L156.2,278c-0.7,1.4,0,3.1,1.4,3.6
			c10.9,4.2,22.7,6.4,35.1,6.4c52.5-0.3,95.4-43.4,95.4-95.9C288.2,139.6,246.1,96.9,193.8,96z"/>
		<circle class="st2" cx="128.1" cy="320" r="32"/>
	</g>
	<g>
		<path class="st2" d="M457.3,210.7c0.8,5.4,3.5,10,7.9,13.9c4.5,3.9,9.8,5.9,15.9,5.9c4.4,0,8.6-1,12.4-3c3.8-2,6.6-4,8.2-5.9
			l2.4-2.9l10.3,10.3c-0.3,0.4-0.8,1-1.4,1.7c-0.6,0.7-2,2-4.1,3.8c-2.1,1.8-4.4,3.4-6.7,4.7c-2.4,1.4-5.5,2.6-9.2,3.8
			c-3.8,1.2-7.7,1.7-11.7,1.7c-10.8,0-20.1-4-27.9-11.9c-7.8-7.9-11.7-17.4-11.7-28.5c0-10.7,3.8-19.8,11.4-27.4
			c7.6-7.6,16.7-11.4,27.4-11.4c10.6,0,19.5,3.5,26.6,10.6c7.1,7.1,10.6,16,10.6,26.6l-0.9,7.9H457.3z M465.9,184.1
			c-3.9,3.4-6.5,7.7-7.9,13.1h44c-0.9-5.4-3.3-9.7-7.2-13.1c-3.9-3.4-8.7-5.1-14.5-5.1C474.6,179.1,469.7,180.8,465.9,184.1z"/>
		<path class="st2" d="M548.3,175.1l1-1c0.5-0.5,1.4-1.2,2.9-2.3c1.5-1.1,3.1-2,4.8-2.9c1.7-0.9,3.8-1.6,6.4-2.3s5.2-1,7.9-1
			c9.2,0,16.6,3,22.3,9.1c5.7,6,8.5,14.1,8.5,24.3v44.3h-15.9v-44.3c0-5.5-1.7-10-5.2-13.6c-3.5-3.6-7.8-5.4-13-5.4
			c-6,0-10.8,1.9-14.4,5.8c-3.6,3.9-5.4,9.3-5.4,16.4v41.2h-15.9v-76h15.9V175.1z"/>
		<path class="st2" d="M662.2,166.6c2.7,0.7,5,1.5,6.9,2.6c1.9,1,3.6,2,5.1,3.1c1.5,1.1,2.6,1.9,3.2,2.5l1.1,1.2v-35.6h15.9v102.9
			h-15.9v-8.7c-0.7,0.7-1.7,1.7-3.1,2.9s-4.1,2.7-8.4,4.6c-4.3,1.9-8.6,2.8-13.1,2.8c-10.1,0-18.8-3.9-26.1-11.6
			c-7.4-7.7-11.1-17.1-11.1-28c0-11,3.7-20.3,11.1-28c7.4-7.7,16.1-11.6,26.1-11.6C656.7,165.5,659.5,165.9,662.2,166.6z
			 M671.4,223.1c4.6-5,7-10.9,7-17.9c0-7-2.3-13-7-17.9c-4.6-5-10-7.4-16-7.4s-11.3,2.5-16,7.4c-4.7,5-7,10.9-7,17.9
			c0,7,2.3,13,7,17.9c4.7,5,10,7.4,16,7.4S666.8,228,671.4,223.1z"/>
		<path class="st2" d="M820.2,243.2h-15.8V140.3h15.8V243.2z"/>
		<path class="st2" d="M1028.1,198.9c0-6.2-1.4-11-4.3-14.2c-2.9-3.2-6.7-4.8-11.6-4.8c-5,0-9.1,2-12.4,5.9c-3.3,3.9-5,9.4-5,16.3
			v41.2H979v-44.3c0-6.2-1.4-11-4.3-14.2c-2.9-3.2-6.7-4.8-11.6-4.8c-5,0-9.1,2-12.4,5.9c-3.3,3.9-5,9.4-5,16.3v41.2h-15.9v-76h15.9
			v7.9c0.6-0.7,1.5-1.6,2.6-2.7c1.1-1.1,3.4-2.5,7-4.2c3.5-1.8,7.2-2.6,11-2.6c3,0,5.9,0.4,8.7,1.3c2.8,0.9,5,1.9,6.6,3.2
			c1.7,1.3,3.1,2.5,4.3,3.8c1.2,1.3,2.1,2.3,2.6,3.2l0.8,1.2c0.2-0.3,0.6-0.7,1-1.3c0.5-0.6,1.5-1.6,3.2-3.1
			c1.6-1.5,3.4-2.8,5.2-3.9c1.9-1.1,4.3-2.1,7.3-3c3-0.9,6.1-1.4,9.4-1.4c8.9,0,15.8,2.8,20.9,8.5c5.1,5.7,7.6,13.9,7.6,24.8v44.3
			h-15.9V198.9z"/>
		<path class="st2" d="M749.3,245.2c-19.3,0-35-15.7-35-35v-43h16v43c0,10.5,8.5,20,19,20s19-9.5,19-20v-43h16v43
			C784.3,229.5,768.6,245.2,749.3,245.2z"/>
		<path class="st2" d="M875.3,245.2c-19.3,0-35-15.7-35-35v-43h16v43c0,10.5,8.5,20,19,20s19-9.5,19-20v-43h16v43
			C910.3,229.5,894.6,245.2,875.3,245.2z"/>
		<path class="st2" d="M369.3,211.6v31.6h-17.4V140.3h44.3c10.6,0,19.4,3.5,26.6,10.4c7,6.8,10.6,15,10.7,24.7
			c0.1,9.7-3.7,19.1-10.7,25.8c-7.1,6.9-16,10.4-26.6,10.4h-17.9v-8.4c0-4.1,3.3-7.5,7.5-7.5h10.4c5.5,0,10.1-1.9,14-5.7
			c3.9-3.8,5.8-8.5,5.8-14.1c0-5.6-1.9-10.3-5.8-14.1c-3.9-3.8-8.5-5.7-14-5.7h-26.9v39.6V211.6z"/>
	</g>
</g>
</svg>
