<?xml version="1.0" encoding="utf-8"?>
<!-- Generator: Adobe Illustrator 26.0.2, SVG Export Plug-In . SVG Version: 6.00 Build 0)  -->
<svg version="1.1" id="Layer_1" class="pendulum-logo-rotate" xmlns="http://www.w3.org/2000/svg" xmlns:xlink="http://www.w3.org/1999/xlink" x="0px" y="0px"
	 viewBox="0 0 384 384" style="enable-background:new 0 0 384 384;" xml:space="preserve">
<style type="text/css">
	.st0{fill:#32253E;}
	.pendulum-logo-rotate .rotate {
		animation: rotate 2s linear infinite;
		transform-origin: center;
	}
	@keyframes rotate {
		0% { transform: rotate(0deg); animation-timing-function: ease-out; }
		50% { transform: rotate(0deg); animation-timing-function: ease-out; }
		70% { transform: rotate(-45deg); animation-timing-function: ease-in; }
		80% { transform: rotate(-45deg); }
		100% { transform: rotate(0deg); animation-timing-function: ease-out; }
	}
</style>
<g>
	<g class="rotate">
		<path class="st0" d="M193.7,96c-52-0.9-96.5,41.6-97.7,93.6c-0.9,35.3,17.3,66.4,44.9,83.8c1.3,0.8,3.1,0.3,3.8-1.1l21.6-43.1
			c3.2-6.3,2.7-13.9-1.2-19.8c-3.3-5.1-5.2-11.2-5.1-17.7c0.2-16.8,13.5-30.7,30.2-31.6c19.3-1,35.2,15.1,33.7,34.5
			c-1.2,15.6-13.8,28.1-29.3,29.4c-0.1,0-0.2,0-0.3,0c-7.1,0.5-13.4,4.6-16.6,11l-21.6,43c-0.7,1.4,0,3.1,1.4,3.6
			c10.9,4.2,22.7,6.4,35.1,6.4c52.5-0.3,95.4-43.4,95.4-95.9C288.1,139.6,246,96.9,193.7,96z"/>
		<circle class="st0" cx="128" cy="320" r="32"/>
	</g>
</g>
</svg>
