<svg width="16" height="14" viewBox="0 0 16 14" fill="none" xmlns="http://www.w3.org/2000/svg">
    <path d="M15.6484 1.62596C15.1638 0.761392 14.2448 0.224609 13.2502 0.224609C12.7821 0.224609 12.3185 0.345891 11.9104 0.575225L6.74942 3.47227L7.34314 4.53044L12.5044 1.6334C12.7327 1.50552 12.9906 1.43789 13.251 1.43789C13.8068 1.43789 14.3199 1.73736 14.5905 2.21971C14.7904 2.57611 14.8394 2.98941 14.7283 3.38374C14.6177 3.77806 14.3603 4.10587 14.0039 4.30578L9.32552 6.93113C9.23641 6.36106 8.9705 5.83531 8.55443 5.41896C7.82075 4.6861 6.65781 4.42679 5.68106 4.7774L5.25869 4.92947L5.66898 6.0707L6.09301 5.91944C6.63859 5.72089 7.28786 5.86883 7.69676 6.27692C7.93269 6.51313 8.08202 6.81232 8.12932 7.13655C8.10953 7.13188 8.0897 7.12691 8.07076 7.12143C7.67559 7.01033 7.34835 6.75268 7.14817 6.39489L6.92764 6.00523L5.86865 6.60031L6.09058 6.98996C6.44918 7.62986 7.03545 8.09184 7.7427 8.29039C7.76716 8.29672 7.79193 8.30359 7.81669 8.30937C7.77931 8.35667 7.73942 8.40176 7.69707 8.44412L3.82961 12.3118C3.54032 12.6009 3.15534 12.7598 2.74586 12.7598C2.33611 12.7598 1.95112 12.6009 1.66238 12.3118C1.37364 12.0228 1.21471 11.6384 1.21471 11.2284C1.21471 10.8186 1.37364 10.4339 1.66238 10.1452L5.02141 6.78647L4.16317 5.92824L0.804447 9.28696C0.285729 9.80608 0 10.4955 0 11.2283C0 11.9617 0.285729 12.6509 0.804345 13.1701C1.32327 13.689 2.01239 13.9741 2.74579 13.9741C3.47919 13.9741 4.16831 13.689 4.68723 13.1701L8.55554 9.30259C8.83877 9.01825 9.05657 8.6745 9.19297 8.2975C9.41709 8.23782 9.63019 8.15203 9.8282 8.04039L14.5979 5.36392C15.2365 5.00505 15.6979 4.4185 15.8961 3.71206C16.0947 3.00531 16.0067 2.26419 15.6484 1.62596Z"/>
</svg>
